<svg id="图层_1" data-name="图层 1" xmlns="http://www.w3.org/2000/svg" viewBox="0 0 594.78 403.98"><title>wpl</title><path d="M82.42,338c.4-.25.46-1.31.41-2-.87-10.87-1.6-21.77-2.74-32.62-1.83-17.26-4.24-34.46-5.81-51.74-.7-7.69.07-15.51.1-23.27a10.72,10.72,0,0,0-.6-2.55c-.57-2.36-1.26-4.69-1.68-7.06-.84-4.69-.77-4.85-5.51-5-10.8-.4-21.37,1.35-31.82,3.9a35.48,35.48,0,0,0-12.05,5.17c-4.6,3.18-7.7,3-12-.65-2.18-1.85-3.7-4.49-5.92-6.27a6.62,6.62,0,0,1-2.48-4.57c-.72-4.49,1-8.33,5.23-9.94a50.77,50.77,0,0,1,10.51-2.31A33.81,33.81,0,0,1,25,199c10.14.57,20.07-.87,30-2.91,3.53-.73,7.14-1.12,10.68-1.84a4,4,0,0,0,2.37-1.6c1.57-2.5,2.83-5.2,4.38-7.7A12.43,12.43,0,0,1,81.29,179c1.54-.26,2.94-1.25,4.44-1.78,4.51-1.59,9-3.34,13.59-4.6,3-.82,6.22-.9,9.33-1.31.39,0,1,.06,1.14-.14,1.49-2.32,3.75-1.32,5.75-1.39a26.56,26.56,0,0,1,3,0,13.73,13.73,0,0,1,2,.5c.43-1.87,1-4.25,1.53-6.61a15.84,15.84,0,0,1,.54-1.69c1.53-4.29,3.06-5.17,7.5-4.27,2,.4,3.39,1.38,3.48,3.64a23,23,0,0,0,.3,2.74c.38,2.62.76,5.25,1.22,7.86a2.37,2.37,0,0,0,.79,1.53c2.51,1.36,1.71,3.47,1.34,5.47-.46,2.5-1,5-1.52,7.7l7.16-3c.22,2.69.42,5.08.6,7.46.15,2,.39,3.93.41,5.9s-.77,3.66-2.65,3.94c-8.4,1.26-13,7.47-17.84,13.35-3.69,4.46-7.18,9.11-12.53,11.84a2.59,2.59,0,0,0-.91,2c0,10.42-2.1,20.62-3.24,30.92-.3,2.68-.79,5.44-.41,8.05,1.51,10.39,1.47,21,4.93,31.09.18.52.44,1,.92,2.1,1.25-2.52,3-3.47,5.29-3.18a2.94,2.94,0,0,1,1.93.94c2.8,4,7,3.41,11,3.44a1.35,1.35,0,0,0,.91-.62,3.55,3.55,0,0,1,4.33-1.49c1.44.39,2.19-.09,2.47-1.37.47-2.09,1.56-2.93,3.81-3.33a25.16,25.16,0,0,0,7.61-3,7.91,7.91,0,0,0,4-6.27,2.93,2.93,0,0,1,.66-1.3c1.84-2.27,4.14-4.3,5.49-6.83,3.43-6.43,6.42-13.1,9.63-19.64,2.08-4.25,4.1-8.54,6.45-12.64,1.18-2.06,3-3.74,4.56-5.61a7.16,7.16,0,0,0,.79-1.3c.48-.91.92-1.83,1.38-2.75l.77.17-.88,7.15c1.08-.45,1.61-1.37,1.52-3.33-.07-1.43-.38-2.87-.36-4.3,0-2.52,1.11-4.51,3.64-5.27,2.93-.88,4.43-2.92,5.63-5.59a50.62,50.62,0,0,1,3.85-6.06c.17-.26.22-.61.39-.88,1.81-3,3.55-6,5.47-8.88,2.5-3.78,5.18-7.43,7.66-11.21.43-.65.27-1.67.48-3.18l-54.48,5.82-.37-.57c2.75.43,2.91-1.07,2.87-2.93-.07-4.07,0-8.15,0-12.42-1.9-.09-3.32-.2-4.74-.2s-1.6-.91-1.6-2.09.15-2,1.66-2c6-.21,12.08-.61,18.13-.79,9.75-.3,19.5-.55,29.26-.67,5.66-.07,11.32.17,17,.23a16.7,16.7,0,0,0,2.51-.38c-.33-.47-.46-.77-.54-.76-2.28.28-3.08-1.46-4.17-2.9q-3.87-5.12-7.88-10.13c-1.51-1.89-2.63-2.17-4.82-1.15-1.35.64-2.56,1.6-3.87,2.35s-2.93,1.44-4.29,2.32c-1.17.75-2.16,1.77-3.28,2.61-2.29,1.72-4.84,3.16-6.87,5.14s-4.28,2-6.73,1.79c-.52,0-1-.19-1.56-.22-3.59-.26-3.67-.26-3.48-3.95.14-2.46.14-4.77-2.5-6a6.31,6.31,0,0,0-2.34-.73c-3.09-.09-6.19,0-8.89,0,3-1.08,6.91.51,10.47-1.66,1.31.34,3.14.4,3.57,2.68.07.35,1.29.48,2,.71-.08-.63.06-1.45-.29-1.86-.85-1-2-1.83-2.91-2.78a18.12,18.12,0,0,1-1.34-1.73l6.14-1.27c-1-1-1.17-1-3.95-.21-1.45.42-2.87,1-4.32,1.36s-2.78.68-4.55,1.12c.06-1.29.12-2.28.18-3.44-1.35-1.32-2.86-2.72-3.21-5.1s-2.58-3.37-4.73-3.4c-5.8-.1-6.34-2-5.7-8.39.33-3.26.91-6.52.93-9.78a13.3,13.3,0,0,0-1.51-5c-.53-1.21-1.69-1.71-3-2.2a34.57,34.57,0,0,1-6.14-3.41c-2.07-1.32-2.93-1.23-3.32,1.07s-1.76,3.8-2.89,5.57c-.67,1-1.13,2.21-1.8,3.25a7.16,7.16,0,0,1-1.37,1.25l-.67-.33c.19-1.57.31-3.16.59-4.72a11.83,11.83,0,0,1,.91-2.81,14.12,14.12,0,0,0-.13-12.56A22.66,22.66,0,0,1,131.3,109c-.34-1.23-1.15-1.32-1.88-.63s-1.17,2-2,2.7a47,47,0,0,1-7,4.93,20.91,20.91,0,0,1,5.71-15.24L105.87,89.15l14.72-2.77A8.57,8.57,0,0,0,122,86.2a8.37,8.37,0,0,0,1.38-.8,5.49,5.49,0,0,0-.83-1.17c-3.89-3.33-6.62-11.69-4.39-16.23,2.32-4.75.86-9.51,1.28-14.24.1-1.12-.59-2.31-.56-3.63,2.59.81,3.17,3.1,4,5.11s1.44,4.31,2.51,6.44c0-1.06-.06-2.13,0-3.2,0-.43.29-1.13.58-1.2s.86.32,1.49.6c.59-2.68,1.2-5.49,1.85-8.3a7.9,7.9,0,0,1,.69-1.44l1.58,1.56c1-2.17,1.6-4.83,3.21-6.53,2-2.14,1.44-4.66,2.21-7l-2.38-.87c5-2.41,10-.35,15.06-1.17l.21,3.44c.48-.53.94-.83,1.09-1.24.81-2.31,2.66-3.58,4.56-4.89,3.38-2.31,6.16-5.37,9.86-7.38,2.2-1.19,3.71-3.65,5.58-5.49a11,11,0,0,1,8.7-3.25c7.15.33,14.33.2,21.5.25a9.42,9.42,0,0,0,1.41-.25c-.56,5.3-5,8.07-7.54,12.33a15.23,15.23,0,0,0,2.54.31q9.36-.42,18.72-.93c2.17-.11,4.33-.32,6.5-.45.44,0,1.08-.09,1.31.16,1.71,1.8,4,1.54,6.09,1.69,3.81.27,7.62.42,11.42.77,1.42.13,2.84.63,3.17,2.67l-12.21,2-.18.65c4.94,1.85,9.46,4.87,14.68,5.79s10.64,1,16.16,1.43c1.07,1.64-1.44,2-1.74,3.64l10-3.29.53.48a8.75,8.75,0,0,1-.79,1.76c-.53.74-1.31,1.31-1.81,2.06a74.49,74.49,0,0,0-9.8,21,10.37,10.37,0,0,0-.31,1.55,2,2,0,0,0,0,.55c5.44,1,10.77,2,16.09,3.11.62.13,1.13.76,1.7,1.16l-.27.55-5.76.5c3.78,2,7.11,3.85,10.49,5.57,1.1.56,2.36.8,3.5,1.28a4.84,4.84,0,0,1,1.15,1c-.41.29-.8.79-1.24.84-3.07.34-6.16.5-9.23.87-4.49.54-8.47,2.12-11.43,5.78-2.18,2.71-4.62,5.22-6.76,8-1.67,2.13-1.49,2.45,1,3.45a13.32,13.32,0,0,1,1.82.74,4.57,4.57,0,0,1,.88,1.09c-.4.23-.79.63-1.2.65-1.78.08-3.56,0-5.33.08a28.17,28.17,0,0,0-3,.51c3.41,5.74,9.31,4.82,14.52,6.28l-2.35.67L268.3,113c-5,2.28-8.54,6.47-14.31,5.88l.1.73c1.72,1,3.46,2,5.14,3.09a6.76,6.76,0,0,1,1.18,1.31c-.53.25-1,.53-1.58.73a13.4,13.4,0,0,1-1.58.4l3.41,3.31-.34.73h-10.2c.37,2.55.63,4.83-2.93,4.13-.08,1.48-.15,2.78-.24,4.36l-1.42-1c-1.52,1.66-3.17.37-4.7.11s-3.06-1.53-4.36.05-.31,3.23.22,4.85c.44,1.34.7,2.75,1.12,4.1a5.47,5.47,0,0,0,.86,1.66c1.86,2.54,3.76,5.05,5.64,7.57.19.26.25.68.49.82,3.32,1.95,4.06,5.51,5.43,8.67,1,2.41,1.57,5.21,3.14,7.18,3.47,4.33,5.14,9.5,7.71,14.59a7.67,7.67,0,0,0,2.6-.87,81.48,81.48,0,0,0,7.41-6.73c.42-.44-.2-2.13-.66-3.1-1.49-3.19-3.29-6.24-4.64-9.49-.63-1.53-.5-3.37-.73-5.18,5.64,2.47,11.88,1.49,17.81,2.65,3.05.6,3.94,1.77,3.34,4.81-.38,1.93-.9,3.84-1.26,5.77-.29,1.58.28,2.53,2.08,2.53,11.52,0,23,0,34.56,0,1.64,0,3.31-.5,4.9-.3,13.33,1.67,26.8-.18,40.08,1.33,12.43,1.42,24.94,1.23,37.33,2.68,18.39,2.16,36.78,4.33,55.09,7,20.4,3,40.7,6.55,61,9.82,5.71.91,11.49,1.43,17.14,2.59,6.14,1.25,12.19,3,18.26,4.61,12.08,3.17,24.2,6.2,35.75,11.06a28.85,28.85,0,0,1,4.64,2.58c.52.35.75,1.14,1.12,1.73a5.76,5.76,0,0,1-1.92.6c-5.38-.31-10.75-.62-16.12-1.1-24-2.17-47.46-7.81-70.95-13a529.55,529.55,0,0,0-59.12-9.78q-53.46-5.64-107.17-6.66c-17.9-.37-35.81-.36-53.71-.51-.65,0-1.29.07-2.23.13a19.79,19.79,0,0,0,.55,2.36Q293,209.89,299.76,228a19.88,19.88,0,0,0,1.9,2.88,5.6,5.6,0,0,1,.49,1.63c1.31,6.23,2.17,12.6,4.07,18.64a41.27,41.27,0,0,1,1.85,12.51c0,6.06,0,12.11,0,18.17a48.61,48.61,0,0,1-2.91,17.48c-2.4,6.59-4.31,13.35-6.58,20-2.86,8.39-5.34,16.93-4.59,25.83s2.34,17.55,3.59,26.32c.41,2.86.86,5.71,1.47,8.53.33,1.54,1.25,2.95,1.53,4.49.39,2.12.43,4.31.62,6.46.6,6.6,1.33,13.19,1.73,19.8a30.14,30.14,0,0,1-.91,7.15c-.07.39-1.08.84-1.66.84-28.21.19-56.42.43-84.62.47q-76.33.12-152.66.07c-1.59,0-2.16-.49-2-2s0-3.33,1.66-4.42a1.15,1.15,0,0,0,.43-.82c-.08-2.53-.2-5.06-.31-7.71l-3,1-.63-2c1.95-.62,3.34,0,5,.49,4.58,1.2,9.42,2,13.44-1.74,2.27-2.09,4.38-4.36,6.49-6.62,1.39-1.48,2.55-3.19,4-4.64,5.8-5.86,11.68-11.64,17.49-17.49,1.6-1.6,3.09-3.32,4.64-5l-.26-.63c-2.45.16-4.91.27-7.36.5-2.29.22-4.59.48-6.85.88-2.05.37-3.1-.46-3.57-2.37-.67-2.68-1.26-5.39-2.14-8a24.19,24.19,0,0,0-2.39-4.14m85-173.65V181c-3.29,0-6.58,0-9.86,0-1.33,0-1.74.72-1.63,2.06s.62,1.92,2,1.81c.58-.05,1.18,0,1.77,0l27.36-1.63c9.39-.55,18.78-1.07,28.17-1.67.59,0,1.53-.59,1.63-1.06.25-1.09-.51-1.66-1.64-1.65h-.19q-15.5.15-31,.3a4.8,4.8,0,0,0-1.31.35c-1.48.45-2.93,1.23-4.43,1.31C179.92,181,176.3,180.83,172.69,180.83ZM297.07,299.39l-.6-.21L281.6,350.74l.53.16,3.46-9.74,1,.52C288.65,327.09,293.81,313.47,297.07,299.39Zm-106.82-32.6q-4.86,7.79-9.73,15.62l.47.27C184.52,277.62,189.42,273.35,190.25,266.79Zm-25-124.47H166c0-1.91.11-3.83-.08-5.72,0-.47-1.07-.83-1.64-1.24a4.57,4.57,0,0,0-.33,1.69C164.29,138.83,164.8,140.57,165.26,142.32Zm21.89,116.87-.7-.24q-1.57,4.74-3.17,9.47l.56.19ZM291.78,383.58l.47-.08L290.94,376l-.53.09Q291.09,379.82,291.78,383.58Z" transform="translate(-2.17 -15.27)"/><path d="M305.39,307.53c-3.26,14.08-8.42,27.71-10.48,42.29l-1-.52-3.46,9.75-.53-.16,14.87-51.57Z" transform="translate(-2.17 -15.27)" style="fill:#fff"/><path d="M198.57,274.93c-.83,6.57-5.73,10.84-9.26,15.89l-.47-.27Z" transform="translate(-2.17 -15.27)" style="fill:#fff"/><path d="M195.47,267.33l-3.31,9.42-.56-.19q1.59-4.74,3.17-9.47Z" transform="translate(-2.17 -15.27)" style="fill:#fff"/><path d="M300.1,391.72q-.69-3.77-1.37-7.53l.53-.09,1.31,7.54Z" transform="translate(-2.17 -15.27)" style="fill:#fff"/><rect x="135.92" y="180.37" width="94.3" height="16.31" transform="translate(-18.28 1.84) rotate(-5.13)"/><rect x="213.88" y="177.31" width="94.3" height="13.46" transform="translate(-7.16 -7.98) rotate(-1.59)"/></svg>